<?xml version="1.0"?>
<svg xmlns="http://www.w3.org/2000/svg" id="Capa_1" enable-background="new 0 0 512 512" height="512px" viewBox="0 0 512 512" width="512px" class=""><g><g><path d="m108.112 178.495-36.685-15.198-11.482 27.716 36.642 15.18c3.016-9.636 6.893-18.895 11.525-27.698z" data-original="#000000" class="active-path" data-old_color="#000000" fill="#FFFFFF"/><path d="m256 89c5.056 0 10.057.239 15 .681v-89.681h-30v89.681c4.943-.442 9.944-.681 15-.681z" data-original="#000000" class="active-path" data-old_color="#000000" fill="#FFFFFF"/><path d="m89 256c0-5.056.239-10.057.681-15h-89.681v30h89.681c-.442-4.943-.681-9.944-.681-15z" data-original="#000000" class="active-path" data-old_color="#000000" fill="#FFFFFF"/><path d="m149.054 127.842-63.467-63.468-21.213 21.213 63.468 63.468c6.425-7.687 13.526-14.788 21.212-21.213z" data-original="#000000" class="active-path" data-old_color="#000000" fill="#FFFFFF"/><path d="m440.127 162.415-36.613 15.374c4.674 8.781 8.589 18.024 11.652 27.644l36.575-15.358z" data-original="#000000" class="active-path" data-old_color="#000000" fill="#FFFFFF"/><circle cx="256" cy="256" r="137" data-original="#000000" class="active-path" data-old_color="#000000" fill="#FFFFFF"/><path d="m384.158 149.054 63.468-63.468-21.213-21.213-63.468 63.468c7.687 6.426 14.788 13.527 21.213 21.213z" data-original="#000000" class="active-path" data-old_color="#000000" fill="#FFFFFF"/><path d="m334.302 108.533 15.396-36.603-27.653-11.632-15.381 36.566c9.618 3.07 18.859 6.989 27.638 11.669z" data-original="#000000" class="active-path" data-old_color="#000000" fill="#FFFFFF"/><path d="m204.058 97.281-15.676-36.444-27.558 11.853 15.687 36.47c8.742-4.751 17.957-8.733 27.547-11.879z" data-original="#000000" class="active-path" data-old_color="#000000" fill="#FFFFFF"/><path d="m307.942 414.719 15.676 36.444 27.559-11.854-15.687-36.47c-8.743 4.752-17.958 8.734-27.548 11.88z" data-original="#000000" class="active-path" data-old_color="#000000" fill="#FFFFFF"/><path d="m403.888 333.505 36.685 15.198 11.482-27.716-36.642-15.18c-3.016 9.636-6.893 18.895-11.525 27.698z" data-original="#000000" class="active-path" data-old_color="#000000" fill="#FFFFFF"/><path d="m362.946 384.158 63.468 63.468 21.213-21.213-63.468-63.468c-6.426 7.687-13.527 14.788-21.213 21.213z" data-original="#000000" class="active-path" data-old_color="#000000" fill="#FFFFFF"/><path d="m108.485 334.211c-4.674-8.781-8.589-18.024-11.652-27.644l-36.575 15.358 11.614 27.66z" data-original="#000000" class="active-path" data-old_color="#000000" fill="#FFFFFF"/><path d="m422.319 241c.442 4.943.681 9.944.681 15s-.239 10.057-.681 15h89.681v-30z" data-original="#000000" class="active-path" data-old_color="#000000" fill="#FFFFFF"/><path d="m127.842 362.946-63.468 63.468 21.213 21.213 63.468-63.468c-7.687-6.426-14.788-13.527-21.213-21.213z" data-original="#000000" class="active-path" data-old_color="#000000" fill="#FFFFFF"/><path d="m177.698 403.467-15.396 36.603 27.653 11.632 15.381-36.566c-9.618-3.07-18.859-6.989-27.638-11.669z" data-original="#000000" class="active-path" data-old_color="#000000" fill="#FFFFFF"/><path d="m256 423c-5.056 0-10.057-.239-15-.681v89.681h30v-89.681c-4.943.442-9.944.681-15 .681z" data-original="#000000" class="active-path" data-old_color="#000000" fill="#FFFFFF"/></g></g> </svg>
